<?xml version="1.0" encoding="utf-8"?>
<!-- Generator: Adobe Illustrator 24.0.1, SVG Export Plug-In . SVG Version: 6.00 Build 0)  -->
<svg version="1.1" xmlns="http://www.w3.org/2000/svg" xmlns:xlink="http://www.w3.org/1999/xlink" x="0px" y="0px"
	 viewBox="0 0 1280 720" style="enable-background:new 0 0 1280 720;" xml:space="preserve">
<style type="text/css">
	.st0{fill-rule:evenodd;clip-rule:evenodd;fill:#B28B67;}
	.st1{fill-rule:evenodd;clip-rule:evenodd;fill:#191847;}
	.st2{fill-rule:evenodd;clip-rule:evenodd;fill:#C5CFD6;}
	.st3{fill-rule:evenodd;clip-rule:evenodd;fill-opacity:0.1;}
	.st4{fill-rule:evenodd;clip-rule:evenodd;fill:#1F28CF;}
	.st5{fill-rule:evenodd;clip-rule:evenodd;fill:#E4E4E4;}
	.st6{fill-rule:evenodd;clip-rule:evenodd;fill:#2B44FF;}
	.st7{fill-rule:evenodd;clip-rule:evenodd;fill:#00AAA7;}
	.st8{fill-rule:evenodd;clip-rule:evenodd;fill:#00656A;}
	.st9{display:none;fill-rule:evenodd;clip-rule:evenodd;fill:#B28B67;}
	.st10{fill-rule:evenodd;clip-rule:evenodd;fill:#FF4133;}
	.st11{fill-rule:evenodd;clip-rule:evenodd;fill:#DB2721;}
	.st12{fill-rule:evenodd;clip-rule:evenodd;fill:none;stroke:#39B54A;stroke-width:5;stroke-miterlimit:10;}
	.st13{fill-rule:evenodd;clip-rule:evenodd;fill:#784931;}
	.st14{fill-rule:evenodd;clip-rule:evenodd;fill:#69A1AC;}
	.st15{fill-rule:evenodd;clip-rule:evenodd;fill:none;stroke:#FF0000;stroke-width:5;stroke-miterlimit:10;}
	.st16{fill-rule:evenodd;clip-rule:evenodd;fill:#915B3C;}
	.st17{fill-rule:evenodd;clip-rule:evenodd;fill:#DDE3E9;}
	.st18{fill-rule:evenodd;clip-rule:evenodd;fill:#89C5CC;}
	.st19{fill-rule:evenodd;clip-rule:evenodd;fill:#997659;}
	.st20{fill-rule:evenodd;clip-rule:evenodd;fill:#E87613;}
	.st21{fill-rule:evenodd;clip-rule:evenodd;fill:#FF9B21;}
	.st22{fill:#C1272D;}
	.st23{font-family:'MyriadPro-Regular';}
	.st24{font-size:72px;}
	.st25{fill-rule:evenodd;clip-rule:evenodd;fill:#FFFFFF;}
	.st26{fill:#39B54A;}
</style>
<g id="Layer_1">
	<g id="humaaans_x2F_sitting-2">
		
			<g id="A-Human_x2F_Sitting" transform="translate(190.000000, 200.500000) scale(-1, 1) translate(-190.000000, -200.500000) translate(40.000000, 24.000000)">
			<g id="Head_x2F_Front_x2F_Rad" transform="translate(82.000000, 0.000000)">
				<g id="Head" transform="translate(54.000000, 31.000000)">
					<path class="st0" d="M-60.1,164.3c-4.6-5.4-7.7-12-7.2-19.5c1.5-21.4,31.2-16.7,37-5.9c5.8,10.8,5.1,38.2-2.4,40.1
						c-3,0.8-9.3-1.1-15.8-5l4.1,28.8h-24L-60.1,164.3z"/>
				</g>
				<path id="hair" class="st1" d="M-23.8,168.7c-0.8-0.8-1.2-1.9-1.6-2.9c-0.4-1.1-0.7-2.2-1-3.3c-0.5-2.2-0.5-4.8,1.1-6.6
					c1.3-1.4,3.2-2,5-2.2c1.2-0.1,2.4,0.1,3.5,0.4c1.1,0.4,3.7-3.4,4.9-5.5c1.2-2,3.1-3.1,5.2-3.4c2.2-0.3,4.4,0.2,6.4,1.3
					c0.5,0.3,1,0.5,1.5,0.9c0.4,0.3,0.8,0.6,1.3,0.7c0.5,0.1,0.8-0.2,1.1-0.6c0.4-0.4,0.8-0.8,1.3-1.2c2.1-1.5,4.8-2.1,7.2-1.2
					c1.1,0.4,2.2,1.1,2.9,2.1c0.7,0.9,1.1,2.3,2.1,2.9c0.4,0.3,0.7-0.1,1-0.3c0.5-0.4,1-0.8,1.6-1.2c0.8-0.5,1.6-0.9,2.5-1.1
					c1.3-0.3,3.1-0.2,3.4,1.5c0.1,0.6,0,1.3,0,1.9c-0.1,0.9-0.1,1.8-0.2,2.6c-0.1,0.7-0.1,1.3-0.3,2c-0.1,0.3-0.3,1-0.1,1.3
					c0.2,0.4,1,0.2,1.4,0.2c0.7,0,1.5,0.2,2.1,0.5c0.5,0.2,1.1,0.6,1.3,1.2c0.1,0.4,0.1,0.7,0,1.1c-0.1,0.5,0,0.7,0.1,1.1
					c1-0.5,4.3-1.5,4.8,0.2c0.1,0.6-0.2,1.2-0.4,1.7c-0.4,0.9-1,1.6-1.6,2.4c-1.2,1.6-2.6,2.9-4.2,4.1c1.8,0.8,2.3,3.2,0.7,4.6
					c-0.7,0.6-1.6,0.8-2.5,0.7c-0.3,0-0.8-0.1-1-0.1c-0.1,0-0.3,0.1-0.5,0.2c-1.2,0.1-2.6-0.2-3.8-0.5c-2.1-0.5-4.2-1.5-5.8-3.1
					c-0.4-0.4-0.8-0.6-1.4-0.6c-0.5,0-1,0.1-1.5,0.2c-1.3,0-2.5-0.6-3.8-1c-0.1,1.7-0.6,3.5-1.2,5c-0.6,1.2-2.8,5-3.4,5.8
					c-1.1,1.2-1.9,2.7-2.5,4.3c-1.7-2.3-4.8-3.7-7.5-3c-3,0.8-5.1,4.8-3.2,7.7c1.1,1.7,3.1,2.3,4.8,3.1c-1.3,1.4-1.6,3.4-2.4,5
					c-0.4,0.8-0.9,1.8-1.8,2.1c-0.5,0.1-0.9,0.1-1.1,0.4c-0.3,0.3-0.4,0.7-0.8,1c-1.6,1.1-4.1,1-5.5-0.4c-1.3-1.3-0.9-3.4,0.1-4.7
					c-1.7-0.7-4.8-1.6-4.1-4.3c-3.7-0.3-12.6-6.3-7.7-10.6c-2.7-1.5-5.2-5.3-3.5-8.6C-29.5,170-26.4,168.8-23.8,168.7"/>
			</g>
			<g id="Bottom_x2F_Sitting_x2F_Skinny-Jeans-1" transform="translate(0.000000, 187.000000)">
				<g id="Objects_x2F_Seat_x2F_Cube" transform="translate(10.000000, 42.000000)">
					<g id="Seat" transform="translate(55.000000, 0.000000)">
						<polygon id="Seat-Stuff" class="st2" points="-40.8,129.8 36.5,129.8 46.6,253.8 -68.4,253.8 						"/>
						<polygon id="Seat-Stuff_1_" class="st3" points="-40.8,129.8 -17,129.8 -2.8,253.8 -68.4,253.8 						"/>
					</g>
				</g>
				<path id="Skin" class="st0" d="M189.6,150.6c8.2-4.9,22.1,1.4,22,8.5c0,21.2-19.3,120.9-20.4,127.2c-1,6.3-11.8,8-12.4,0
					c-1-12.7-2.9-56.4-1-76.7c0.8-8.4,1.6-16.3,2.4-23.4c-10.1,18.3-25.8,44.5-47,78.6l-11.5-5.3c9-29.8,16.5-50.8,22.2-63.1
					c9.9-21,19.2-39,23.1-45.4C173.2,141,183.9,144.5,189.6,150.6z"/>
				<path id="LegLower" class="st4" d="M122.5,242.9l39.5-93.6c9.5-15.2,36,3.1,32.8,11.9c-7.3,20.1-44.6,85-46.8,91L122.5,242.9z"
					/>
				
					<g id="Accessories_x2F_Shoe_x2F_Flat-Sneaker" transform="translate(215.500000, 133.000000) rotate(30.000000) translate(-215.500000, -133.000000) translate(185.000000, 113.000000)">
					<path id="shoe" class="st5" d="M8.4,172c-1.1,3-1.7,5.2-1.7,6.7c0,1.8,0.3,4.4,0.9,7.9c2.1,0,20.9,0,56.4,0
						c1.5-4.8,0.6-7.5-2.5-7.8c-3.2-0.4-5.8-0.7-7.9-1L27.4,166c-0.5-0.2-1.1,0-1.3,0.5l0,0l-1.7,4.1c-2.9,1.4-5.3,2-7.1,2
						c-1.5,0-3.5-0.6-6.2-1.8l0,0c-1-0.5-2.2,0-2.7,1C8.4,171.9,8.4,172,8.4,172z"/>
				</g>
				<g id="Accessories_x2F_Shoe_x2F_Flat-Sneaker_1_" transform="translate(242.000000, 126.000000)">
					<path id="shoe_1_" class="st5" d="M-65.7,155.2c-1.1,3-1.7,5.2-1.7,6.7c0,1.8,0.3,4.4,0.9,7.9c2.1,0,20.9,0,56.4,0
						c1.5-4.8,0.6-7.5-2.5-7.8c-3.2-0.4-5.8-0.7-7.9-1l-26.2-11.8c-0.5-0.2-1.1,0-1.3,0.5l0,0l-1.7,4.1c-2.9,1.4-5.3,2-7.1,2
						c-1.5,0-3.5-0.6-6.2-1.8l0,0c-1-0.5-2.2,0-2.7,1C-65.7,155.1-65.7,155.2-65.7,155.2z"/>
				</g>
				<path id="Leg-and-Butt" class="st6" d="M214.4,166.2c0,26.6-12.6,88.5-12.6,94.4h-27.1c4-55.3,5.4-83.2,4.2-83.8
					c-1.7-0.9-71.1,6.9-91.8,6.9c-30.1,0-42.5-18.9-43.5-53.9H103c12.1,1.3,75.2,14,98.6,18.4C211.6,150.1,214.4,158.9,214.4,166.2z
					"/>
			</g>
			<g id="Body_x2F_Pointing-Forward" transform="translate(22.000000, 82.000000)">
				<path id="Clothes" class="st7" d="M93.1,265.4c-9.2,19.5-53.4,2.9-71.5,6.5c-11.3-36.8,7-34.4,7-57.9
					c0-25.8,14.8-84.2,17.8-84.2h27.7c0.8,10.4,14.6,47.5,19.9,79.2C98.7,237.3,95.2,260.9,93.1,265.4z"/>
				<path id="Sleeve" class="st8" d="M70.3,158.5c-0.9,19.7,0.8,46.1,12.3,74.7l-18.4,10.1c-12.9-20-23.1-47.7-21.4-71.5
					C44.3,153.3,61.2,144.4,70.3,158.5z"/>
			</g>
		</g>
	</g>
	<g id="humaaans_x2F_sitting-5">
		
			<g id="A-Human_x2F_Sitting_1_" transform="translate(190.000000, 200.500000) scale(-1, 1) translate(-190.000000, -200.500000) translate(40.000000, 24.000000)">
			<g id="Bottom_x2F_Sitting_x2F_Skinny-Jeans-1_1_" transform="translate(0.000000, 187.000000)">
				<g id="Objects_x2F_Seat_x2F_Cube_1_" transform="translate(10.000000, 42.000000)">
					<g id="Seat_1_" transform="translate(55.000000, 0.000000)">
						<polygon id="Seat-Stuff_5_" class="st2" points="-444.9,-33.5 -367.5,-33.5 -357.5,90.5 -472.5,90.5 						"/>
						<polygon id="Seat-Stuff_2_" class="st3" points="-444.9,-33.5 -421,-33.5 -406.9,90.5 -472.5,90.5 						"/>
					</g>
				</g>
				<path id="Skin_3_" class="st0" d="M-214.4-12.8c8.2-4.9,22.1,1.4,22,8.5c0,21.2-19.3,120.9-20.4,127.2c-1,6.3-11.8,8-12.4,0
					c-1-12.7-2.9-56.4-1-76.7c0.8-8.4,1.6-16.3,2.4-23.4c-10.1,18.3-25.8,44.5-47,78.6l-11.5-5.3c9-29.8,16.5-50.8,22.2-63.1
					c9.9-21,19.2-39,23.1-45.4C-230.8-22.3-220.1-18.8-214.4-12.8z"/>
				<path id="LegLower_1_" class="st4" d="M-281.6,79.6l39.5-93.6c9.5-15.2,36,3.1,32.8,11.9c-7.3,20.1-44.6,85-46.8,91L-281.6,79.6
					z"/>
				
					<g id="Accessories_x2F_Shoe_x2F_Flat-Sneaker_3_" transform="translate(215.500000, 133.000000) rotate(30.000000) translate(-215.500000, -133.000000) translate(185.000000, 113.000000)">
					<path id="shoe_3_" class="st5" d="M-423.3,232.5c-1.1,3-1.7,5.2-1.7,6.7c0,1.8,0.3,4.4,0.9,7.9c2.1,0,20.9,0,56.4,0
						c1.5-4.8,0.6-7.5-2.5-7.8c-3.2-0.4-5.8-0.7-7.9-1l-26.2-11.7c-0.5-0.2-1.1,0-1.3,0.5l0,0l-1.7,4.1c-2.9,1.4-5.3,2-7.1,2
						c-1.5,0-3.5-0.6-6.2-1.8l0,0C-421.6,230.9-422.8,231.4-423.3,232.5C-423.2,232.4-423.3,232.5-423.3,232.5z"/>
				</g>
				<g id="Accessories_x2F_Shoe_x2F_Flat-Sneaker_2_" transform="translate(242.000000, 126.000000)">
					<path id="shoe_2_" class="st5" d="M-469.8-8.1c-1.1,3-1.7,5.2-1.7,6.7c0,1.8,0.3,4.4,0.9,7.9c2.1,0,20.9,0,56.4,0
						c1.5-4.8,0.6-7.5-2.5-7.8c-3.2-0.4-5.8-0.7-7.9-1l-26.2-11.8c-0.5-0.2-1.1,0-1.3,0.5l0,0l-1.7,4.1c-2.9,1.4-5.3,2-7.1,2
						c-1.5,0-3.5-0.6-6.2-1.8l0,0c-1-0.5-2.2,0-2.7,1C-469.8-8.2-469.8-8.2-469.8-8.1z"/>
				</g>
				<path id="Leg-and-Butt_1_" class="st6" d="M-189.7,2.9c0,26.6-12.6,88.5-12.6,94.4h-27.2c4-55.3,5.4-83.2,4.2-83.8
					c-1.7-0.9-71.1,6.9-91.8,6.9c-30,0-42.4-18.9-43.4-53.9h59.4c12.1,1.3,75.2,14,98.6,18.4C-192.4-13.3-189.7-4.4-189.7,2.9z"/>
			</g>
			<g id="Body_x2F_Turtle-Neck" transform="translate(22.000000, 82.000000)">
				<path id="Skin_2_" class="st9" d="M-273,58.9l28.3,27.6c8.2,3.5,15,7.4,20.3,11.6c1.2,1.4,2.5,4.2-3.1,2.9
					c-5.6-1.2-11.5-2.3-12.5-0.5c-1,1.8,2,4.6,0.1,7c-1.3,1.6-5.6-3.4-13-15.1L-282.4,75L-273,58.9z M-411.5,33.9l21.9,0.1
					c-16.7,54-25.6,82.3-26.6,84.9c-2.3,5.7,2.6,14.4,4.7,19.1c-6.8,3.1-6.1-8.3-14.7-4.2c-7.9,3.7-13.8,10.3-22.9,4.7
					c-1.1-0.7-2.3-3.3,0.6-5.3c7.4-5,18-13.9,19.4-16.8C-427,112.4-421.3,84.9-411.5,33.9z"/>
				<path id="Clothes-Front" class="st10" d="M-330.3-21.8c-1,63.7,35.9,80,27.6,105.6c-6.7,21.1-71.6,43.8-82.8,23.1
					c-4.5-8.4-15.8-111.2,20.7-136.1l0.4-5.4c0.2-2.2,2.1-3.9,4.3-3.7l26.9,1.9c2.2,0.2,3.9,2.1,3.7,4.3L-330.3-21.8z"/>
				<path id="Clothes-Back" class="st11" d="M-363.8,5.7l6.7,1.8c-3.6,35.1,37.9,78.2,36,91.1c-0.7,4.7-7,4.7-5.8,6.8l-8.5,2.4
					c-0.8-2-4.8-0.7-10.2-5.2C-350.9,98-379.5,42.2-363.8,5.7z"/>
			</g>
		</g>
	</g>
	<rect x="50" y="67.5" class="st12" width="357.5" height="535.5"/>
	<rect x="461.3" y="67.8" class="st12" width="357.5" height="535.5"/>
</g>
<g id="Layer_2">
	<polygon id="Leg_7_" class="st13" points="1045.5,116.2 1076.2,214.5 1090.7,288.3 1105.1,288.3 1090.7,116.2 	"/>
	<path id="Pant_7_" class="st14" d="M1044.9,116.2c8,33.8,21.8,87.8,41.4,161.9h21.2c1.6-76.1-5.1-126.2-16.6-161.9H1044.9z"/>
	<rect x="878.3" y="66.8" class="st15" width="357.5" height="189.8"/>
	<g id="humaaan-11_1_" transform="translate(34.000000, 17.000000)">
		<g id="Bottom_x2F_Standing_x2F_Sweatpants_1_" transform="translate(0.000000, 203.685999)">
			<path id="Leg_6_" class="st16" d="M997.8-104.5c2.1,51.1,1.3,78.9,0.8,83.5c-0.5,4.6-3.2,35.7-21.7,90.1h15.1
				c24.5-52.2,33.1-83.2,35.9-90.1s11.1-34.7,23.3-83.5H997.8z"/>
			<path id="Pant_6_" class="st2" d="M997.7-104.5c2.1,51.1-3.3,101.4-20.2,162.7h22.6c24.6-51.4,42.2-101.4,54.3-162.7H997.7z"/>
			<g id="Accessories_x2F_Shoe_x2F_Flat-Simple_3_" transform="translate(87.603226, 207.536214)">
				<path id="Shoe_3_" class="st1" d="M887.1-128.3l0.8-12.5c4.9,1.3,11,0.8,18.3-1.6c7.9,5.2,17.8,8.7,29.7,10.6v0
					c0.9,0.1,1.5,0.9,1.4,1.8c0,0.1,0,0.1,0,0.2l-1.1,3.8h-29.9h-17.5L887.1-128.3z"/>
			</g>
			<g id="Accessories_x2F_Shoe_x2F_Flat-Simple_2_" transform="translate(185.635407, 207.536214)">
				<path id="Shoe_2_" class="st1" d="M867.8-128.3l0.8-12.5c4.9,1.3,11,0.8,18.3-1.6c7.9,5.2,17.8,8.7,29.7,10.6v0
					c0.9,0.1,1.5,0.9,1.4,1.8c0,0.1,0,0.1,0,0.2l-1.1,3.8h-29.9h-17.5L867.8-128.3z"/>
			</g>
		</g>
		
			<g id="Body_x2F_Hoodie_3_" transform="translate(155.249818, 192.734499) rotate(-10.000000) translate(-155.249818, -192.734499) translate(21.880847, 95.214000)">
			<path id="Skin_6_" class="st16" d="M1064.1,148.7l26.9,18.6c7.3,1.9,13.3,4.2,18.2,7c1.2,1,2.6,3-2.2,2.6
				c-4.8-0.4-9.8-0.6-10.4,0.9s2.3,3.4,1,5.4c-0.9,1.4-5.1-2.1-12.7-10.4l-26.5-10.5L1064.1,148.7z M961.7,148.1l17.5,0.3
				c-10.4,32.4-16,49.6-16.8,51.5c-1.9,4.5,2.3,11.3,4.1,15c-5.7,2.3-5.2-6.5-12.3-3.5c-6.5,2.8-11.5,7.9-19.1,3.4
				c-0.9-0.5-2-2.6,0.5-4.1c6.1-3.9,14.9-10.6,16-12.9C953.2,194.7,956.6,178.2,961.7,148.1z"/>
			<path id="Coat-Back_3_" class="st4" d="M1010.5,80.3l7.2-1.1c27.1,22,38.6,63.6,71.8,86l-7.8,9.1
				C1024.6,167,1009.8,116.2,1010.5,80.3z"/>
			<path id="Shirt_3_" class="st17" d="M980.1,164.7c29,0.3,50.3,0.6,63.9,0.8c2.9,0,2.3-3.9,1.9-5.9c-5.2-23-24.5-48-24.9-80.6
				l-18.5-2.9C987.5,98.7,982.6,126.9,980.1,164.7z"/>
			<path id="Coat-Front_3_" class="st6" d="M979.7,98.3c-2.7-0.8-4.8-2.5-6.4-5.1c-6.9-11.4-4.5-17.7,2.6-19.6
				c7.2-2,13.7,2.3,25.1,2.5c0.6,0,1.2,0.1,1.7,0.1l5.8,0.4c17.2,52.6,22.3,87.7,15.1,105.1l-50.3-0.6c-2.9,6.5-5.7,11.9-8.3,16.3
				l-13.7-0.2C949.5,158.1,958.9,125.2,979.7,98.3z"/>
			<path id="Shade_6_" class="st3" d="M983.9,154.2c1.7,12.4,4.4,21.4,8.1,27l-18.7-0.2C976.7,173.5,980.2,164.5,983.9,154.2z"/>
		</g>
	</g>
</g>
<g id="Layer_3">
	<path id="Leg_2_" class="st0" d="M1045.5,571c28.5-1.7,67.2,0.6,69.1,1.2c1.2,0.4,17.6,17.7,49.1,51.8l5.8-6.3
		c-27.8-40.9-43.5-62.3-46.9-64c-5.2-2.6-51.5-9-79.3-14.8L1045.5,571z"/>
	<path id="Pant_2_" class="st18" d="M1153,616.4l29.4-28.8c-32.4-25.8-53.5-40.7-63.1-44.7c-9.6-4-35.1-6.4-76.3-7.1l2.9,40.8
		c36.2-0.6,55.2-0.5,56.9,0C1104.6,577.3,1121.3,590.5,1153,616.4z"/>
	<rect x="874.8" y="412.5" class="st15" width="357.5" height="189.8"/>
	<g id="humaaans_x2F_standing-19">
		<g id="humaaan-3" transform="translate(28.000000, 2.000000)">
			
				<g id="Head_x2F_Front_x2F_Short-Beard" transform="translate(133.219486, 73.532869) rotate(-15.000000) translate(-133.219486, -73.532869) translate(59.569689, 17.301852)">
				<g id="Head_1_" transform="translate(58.494090, 33.282773)">
					<path class="st0" d="M663.4,717.7c-3.3,3.3-7.5,5.6-12.3,5.6c-14,0-12.3-19.7-5.6-24s24.6-5.1,26.2-0.3
						c0.6,1.9-0.3,6.2-2.5,10.6l18.5-4l1.1,15.7L663.4,717.7z"/>
				</g>
				<path id="Hair" class="st1" d="M710.2,743.3c8.3-1.2,12.3-3.1,12.1-5.7c-0.3-3.9-2.9-7-3.1-8.7c-0.1-1.2,1.5-1.1,2.7-0.3
					c1,0.6,2.1,3.8,3.6,3.7c1.5-0.1,0.1-2.6,1-2.7c1.4-0.1,4.1-0.8,4.3,1.8c0.2,2.5-0.2,9.9-3.9,11.4c-2.3,1-7.3,1.9-14.8,2.6
					c0,0.2,0,0.3,0,0.5c0.2,2.2,2,3.8,4.2,3.7c1.1-0.1,2-0.6,2.7-1.4c1.3,0.8,2.7,1.7,4.2,2.8c-2.3,4.6-9.7,8.4-17.3,4.6
					c-3.7-0.9-5.8-3.5-6.9-6.6c-1.2-2.5-1.6-5.1-1.1-7.4c0.1-4.4,1.1-8.5,1.8-9.6c4.1-0.3,5.4,0.4,5.8,7.3
					C706.5,740.9,708.1,742.1,710.2,743.3z"/>
			</g>
			<g id="Bottom_x2F_Standing_x2F_Baggy-Pants" transform="translate(0.000000, 218.435876)">
				<polygon id="Leg_3_" class="st19" points="1017,344.1 1095.8,306.2 1162.8,279.7 1162.2,271.2 1015,314.8 				"/>
				
					<g id="Accessories_x2F_Shoe_x2F_Flat-Sneaker_5_" transform="translate(55.786030, 203.938854) rotate(50.000000) translate(-55.786030, -203.938854) translate(22.747702, 182.358023)">
					<path id="shoe_5_" class="st5" d="M879.6-675.1c2,0.6,3.5,0.9,4.5,0.8c1.2-0.1,2.9-0.4,5.1-1c-0.1-1.4-1-13.7-2.6-36.9
						c-3.2-0.7-4.9-0.1-5,2s-0.2,3.8-0.3,5.2l-6.4,17.7c-0.1,0.3,0.1,0.7,0.4,0.8c0,0,0,0,0,0l2.8,0.9c1,1.9,1.6,3.4,1.7,4.6
						c0.1,1-0.2,2.3-0.9,4.1l0,0C878.5-676.1,878.8-675.4,879.6-675.1C879.5-675.1,879.6-675.1,879.6-675.1z"/>
				</g>
				<g id="Accessories_x2F_Shoe_x2F_Flat-Sneaker_4_" transform="translate(225.310568, 214.729269)">
					<path id="shoe_4_" class="st5" d="M934.6,68.7c2,0.6,3.5,0.9,4.5,0.8c1.2-0.1,2.9-0.4,5.1-1c-0.1-1.4-1-13.7-2.6-36.9
						c-3.2-0.7-4.9-0.1-5,2c-0.1,2.1-0.2,3.8-0.3,5.2l-6.4,17.7c-0.1,0.3,0.1,0.7,0.4,0.8c0,0,0,0,0,0l2.8,0.9
						c1,1.9,1.6,3.4,1.7,4.6c0.1,1-0.2,2.3-0.9,4.1v0C933.5,67.6,933.9,68.4,934.6,68.7C934.6,68.7,934.6,68.7,934.6,68.7z"/>
				</g>
				<polygon id="Pant_3_" class="st14" points="1158,312.3 1150.8,272.1 1014.7,312 1017.3,348.3 				"/>
			</g>
			
				<g id="Body_x2F_Hoodie_1_" transform="translate(161.379703, 207.081536) rotate(-10.000000) translate(-161.379703, -207.081536) translate(22.744790, 105.973841)">
				<path id="Skin_1_" class="st0" d="M909.8,548.2l13.8-22c1.1-5.8,2.7-10.6,4.7-14.6c0.8-1,2.3-2.2,2.3,1.6c0,3.7,0.1,7.7,1.4,8.1
					c1.3,0.4,2.7-1.9,4.4-1c1.2,0.6-1.4,4.1-7.9,10.4l-7.1,21.3L909.8,548.2z M916,628.4l-0.9-13.7c27.8,6.5,42.5,10,44.2,10.6
					c3.8,1.2,9.3-2.4,12.3-4c2.3,4.3-5.1,4.4-2.1,9.8c2.7,5,7.3,8.6,4.1,14.8c-0.4,0.8-2,1.7-3.5-0.2c-3.6-4.6-9.9-11.1-11.8-11.9
					C955.6,632.8,941.5,630.9,916,628.4z"/>
				<path id="Coat-Back_1_" class="st20" d="M856.1,593.6l-1.4-5.6c16.6-22.3,50.7-33.4,67.2-60.5l8.1,5.7
					C927.7,578.2,886.1,592.3,856.1,593.6z"/>
				<path id="Shirt_1_" class="st17" d="M928.7,613.2c-1.6-22.7-2.8-39.4-3.6-50.1c-0.2-2.3-3.4-1.6-5.1-1.2
					c-18.9,5.2-38.5,21.6-65.8,23.5l-1.2,14.6C873,610.6,896.9,613.1,928.7,613.2z"/>
				<path id="Coat-Front_1_" class="st21" d="M873.2,616.8c-0.5,2.1-1.7,3.9-3.8,5.3c-9.1,6-14.5,4.4-16.6-1.1
					c-2.1-5.5,1.1-10.8,0.4-19.8c0-0.5,0-0.9,0-1.4l-0.1-4.5c42.9-16.1,71.8-21.8,86.9-17l2.8,39.4c5.6,1.9,10.3,3.9,14.2,5.7
					l0.8,10.7C925.2,637.5,897,631.7,873.2,616.8z"/>
				<path id="Shade_1_" class="st3" d="M919.7,610.7c10.2-2,17.6-4.5,22.1-7.7l1,14.6C936.2,615.4,928.5,613.1,919.7,610.7z"/>
			</g>
		</g>
	</g>
</g>
<g id="Layer_4">
	<text transform="matrix(1 0 0 1 956.1177 369.3525)" class="st22 st23 st24">DON’Ts</text>
	<rect x="372" y="309" class="st25" width="135" height="78"/>
	<text transform="matrix(1 0 0 1 376.7582 368.9559)" class="st26 st23 st24">DOs</text>
</g>
</svg>
